<?xml version="1.0" standalone="no"?>
<!DOCTYPE svg PUBLIC "-//W3C//DTD SVG 20010904//EN"
 "http://www.w3.org/TR/2001/REC-SVG-20010904/DTD/svg10.dtd">
<svg version="1.0" xmlns="http://www.w3.org/2000/svg"
 width="274.000000pt" height="274.000000pt" viewBox="0 0 274.000000 274.000000"
 preserveAspectRatio="xMidYMid meet">
<metadata>
Created by potrace 1.14, written by Peter Selinger 2001-2017
</metadata>
<g transform="translate(0.000000,274.000000) scale(0.100000,-0.100000)"
fill="#000000" stroke="none">
<path d="M869 2546 c-35 -18 -135 -74 -223 -125 -87 -50 -161 -91 -164 -91
-16 0 -49 -44 -45 -59 4 -17 16 -26 77 -61 17 -9 158 -92 313 -183 156 -92
305 -179 331 -194 27 -15 133 -77 235 -138 103 -60 203 -119 223 -130 l36 -20
57 31 c156 87 426 246 432 256 4 6 4 19 0 30 -3 10 -143 97 -316 199 -171 99
-362 211 -425 249 -63 37 -131 77 -150 88 -19 11 -97 56 -173 101 -76 44 -139
81 -141 81 -2 0 -32 -15 -67 -34z"/>
<path d="M285 2068 c-3 -13 -4 -417 -3 -898 l3 -875 204 -127 c112 -71 212
-128 221 -128 11 0 22 11 27 28 9 27 11 1758 3 1765 -16 14 -130 87 -135 87
-3 0 -11 5 -18 11 -7 5 -65 44 -129 85 -124 78 -164 90 -173 52z"/>
<path d="M957 1756 c-12 -12 -14 -64 -15 -283 0 -147 1 -276 4 -285 13 -43 42
-33 244 82 36 21 70 39 75 41 6 2 59 31 118 64 159 89 161 84 -53 203 -25 14
-111 63 -192 109 -82 45 -152 83 -157 83 -5 0 -16 -6 -24 -14z"/>
<path d="M2061 1625 c-40 -25 -75 -45 -77 -45 -2 0 -28 -16 -58 -35 -30 -19
-57 -35 -60 -35 -2 0 -33 -18 -67 -40 -35 -22 -71 -43 -79 -47 -75 -35 -756
-447 -760 -461 -9 -25 -5 -523 4 -549 4 -13 16 -23 26 -23 10 0 153 79 317
176 164 98 312 185 328 194 94 54 477 281 513 303 l42 27 0 153 c1 83 1 208 2
277 1 69 -2 131 -6 138 -13 22 -50 12 -125 -33z"/>
</g>
</svg>
